<svg xmlns="http://www.w3.org/2000/svg" xmlns:xlink="http://www.w3.org/1999/xlink" width="40" height="40" viewBox="0 0 40 40">
  <defs>
    <clipPath id="clip-path">
      <rect id="Rectangle_211" data-name="Rectangle 211" width="40" height="40" transform="translate(990 2691)" fill="#0892b9" stroke="#707070" stroke-width="1"/>
    </clipPath>
  </defs>
  <g id="icon-mission" transform="translate(-990 -2691)" clip-path="url(#clip-path)">
    <path id="target" d="M20.688,1.377a19.287,19.287,0,0,0-8.866,2.159L8.63.344A1.173,1.173,0,0,0,6.7.764L5.089,5.089.764,6.7A1.173,1.173,0,0,0,.344,8.63l3.192,3.192A19.309,19.309,0,1,0,20.688,1.377Zm0,25.667a6.356,6.356,0,1,0-3.585-11.6l-2.95-2.95a10.5,10.5,0,1,1-1.659,1.659l2.95,2.95a6.352,6.352,0,0,0,5.245,9.941Zm.83-7.185-2.71-2.71a4.012,4.012,0,1,1-1.659,1.659l2.71,2.71a1.173,1.173,0,0,0,1.659-1.659ZM8.262,3.295,12.21,7.243l-.508,2.8L7.364,5.7ZM3.295,8.262l2.41-.9L10.043,11.7l-2.8.508ZM20.688,37.653A16.959,16.959,0,0,1,5.29,13.576l.729.729a1.174,1.174,0,0,0,1.039.325l2.586-.469A12.844,12.844,0,1,0,14.16,9.643l.469-2.586A1.174,1.174,0,0,0,14.3,6.018l-.729-.729a16.964,16.964,0,1,1,7.113,32.364Z" transform="translate(990 2691)" fill="#0892b9"/>
  </g>
</svg>
