<svg xmlns="http://www.w3.org/2000/svg" xmlns:xlink="http://www.w3.org/1999/xlink" width="16" height="16" viewBox="0 0 16 16">
  <defs>
    <clipPath id="clip-path">
      <rect id="Rectangle_15" data-name="Rectangle 15" width="16" height="16" transform="translate(1144 17)" fill="#0892b9" stroke="#707070" stroke-width="1"/>
    </clipPath>
  </defs>
  <g id="icon-phone" transform="translate(-1144 -17)" clip-path="url(#clip-path)">
    <g id="call" transform="translate(1144 17.023)">
      <g id="Group_52" data-name="Group 52">
        <path id="Path_254" data-name="Path 254" d="M13.95,17.879a2.039,2.039,0,0,1-.686-.12,17.6,17.6,0,0,1-4.385-2.371,20.943,20.943,0,0,1-2.442-2.1,21.019,21.019,0,0,1-2.024-2.343A17.718,17.718,0,0,1,2.028,6.624a2.023,2.023,0,0,1,.464-2.135L4.466,2.515a2.022,2.022,0,0,1,2.857,0l1.9,1.9a2.025,2.025,0,0,1,0,2.857l-.356.356a19.9,19.9,0,0,0,1.529,1.715,20.027,20.027,0,0,0,1.82,1.612l.346-.346a2.025,2.025,0,0,1,2.857,0l1.9,1.9a2.025,2.025,0,0,1,0,2.857L15.38,17.29a2.028,2.028,0,0,1-.989.544,2.2,2.2,0,0,1-.441.046ZM5.9,3.189a.751.751,0,0,0-.533.22L3.389,5.383a.753.753,0,0,0-.173.8,16.445,16.445,0,0,0,2.218,4.015,19.748,19.748,0,0,0,1.9,2.2,19.834,19.834,0,0,0,2.293,1.969,16.335,16.335,0,0,0,4.067,2.2.754.754,0,0,0,.788-.176l1.931-1.931a.758.758,0,0,0,0-1.065l-1.9-1.9a.754.754,0,0,0-1.065,0l-.594.594a.864.864,0,0,1-1.131.08,21.088,21.088,0,0,1-2.233-1.941A20.99,20.99,0,0,1,7.638,8.111a.868.868,0,0,1,.076-1.136l.608-.608a.758.758,0,0,0,0-1.065L6.429,3.409a.751.751,0,0,0-.533-.22Z" transform="translate(-1.9 -1.924)" fill="#0892b9"/>
      </g>
    </g>
  </g>
</svg>
