<svg xmlns="http://www.w3.org/2000/svg" xmlns:xlink="http://www.w3.org/1999/xlink" width="40" height="40" viewBox="0 0 40 40">
  <defs>
    <clipPath id="clip-path">
      <rect id="Rectangle_210" data-name="Rectangle 210" width="40" height="40" transform="translate(375 2691)" fill="#0892b9" stroke="#707070" stroke-width="1"/>
    </clipPath>
  </defs>
  <g id="icon-vision" transform="translate(-375 -2691)" clip-path="url(#clip-path)">
    <g id="binoculars" transform="translate(375 2691)">
      <g id="Group_196" data-name="Group 196">
        <path id="Path_412" data-name="Path 412" d="M39.541,24.084c-.067-.195-4.469-11.777-4.49-11.826a6.2,6.2,0,0,0-3.3-3.424c-.017-.044-.6-1.552-.617-1.595a4.248,4.248,0,0,0-7.962.566,1.17,1.17,0,0,0-.044.32V13.4h-6.25V8.125a1.173,1.173,0,0,0-.044-.32,4.247,4.247,0,0,0-7.984-.513l-.6,1.542A6.2,6.2,0,0,0,4.932,12.3C.162,24.855.53,23.88.459,24.084a8.438,8.438,0,1,0,16.3,4.158h6.486a8.438,8.438,0,1,0,16.3-4.158ZM32.876,13.133l.016.039,2.3,6.044a8.429,8.429,0,0,0-9.72,1.79V14.492a3.828,3.828,0,0,1,7.407-1.359Zm-9.751,9.484h-6.25V15.742h6.25Zm-6.25,2.344h6.25V25.9h-6.25ZM27.247,7.07A1.889,1.889,0,0,1,29.04,8.327a6.139,6.139,0,0,0-3.571,1.33V8.308A1.9,1.9,0,0,1,27.247,7.07Zm-14.494,0a1.9,1.9,0,0,1,1.778,1.238V9.656a6.139,6.139,0,0,0-3.571-1.33A1.889,1.889,0,0,1,12.753,7.07ZM7.124,13.133a3.828,3.828,0,0,1,7.407,1.359v6.514a8.429,8.429,0,0,0-9.72-1.79C8.231,10.215,6.7,14.257,7.124,13.133Zm1.314,19.8a6.094,6.094,0,1,1,6.094-6.094A6.1,6.1,0,0,1,8.437,32.93Zm23.125,0a6.094,6.094,0,1,1,6.094-6.094A6.1,6.1,0,0,1,31.562,32.93Z" fill="#0892b9"/>
      </g>
    </g>
  </g>
</svg>
