<svg xmlns="http://www.w3.org/2000/svg" xmlns:xlink="http://www.w3.org/1999/xlink" width="16" height="16" viewBox="0 0 16 16">
  <defs>
    <clipPath id="clip-path">
      <rect id="Rectangle_262" data-name="Rectangle 262" width="16" height="16" transform="translate(796 1095)" fill="#0892b9" stroke="#707070" stroke-width="1"/>
    </clipPath>
  </defs>
  <g id="icon-down" transform="translate(-796 -1095)" clip-path="url(#clip-path)">
    <g id="Download" transform="translate(793.333 1092.333)">
      <path id="Path_403" data-name="Path 403" d="M18.667,16V13.333a.667.667,0,0,0-1.333,0V16a.667.667,0,0,1-.667.667h-12A.667.667,0,0,1,4,16V13.333a.667.667,0,0,0-1.333,0V16a2,2,0,0,0,2,2h12A2,2,0,0,0,18.667,16Zm-4.253-3.48L11.08,15.187a.667.667,0,0,1-.827,0L6.92,12.52a.667.667,0,0,1,.827-1.04L10,13.28V4a.667.667,0,1,1,1.333,0v9.28l2.253-1.8a.667.667,0,1,1,.827,1.04Z" fill="#0892b9"/>
    </g>
  </g>
</svg>
