<svg xmlns="http://www.w3.org/2000/svg" xmlns:xlink="http://www.w3.org/1999/xlink" width="40" height="40" viewBox="0 0 40 40">
  <defs>
    <clipPath id="clip-path">
      <rect id="Rectangle_196" data-name="Rectangle 196" width="40" height="40" transform="translate(375 2646)" fill="#fff" stroke="#707070" stroke-width="1"/>
    </clipPath>
  </defs>
  <g id="service-icon-1" transform="translate(-375 -2646)" clip-path="url(#clip-path)">
    <g id="sewer" transform="translate(375.394 2646)">
      <path id="Path_377" data-name="Path 377" d="M37.012,53.119a5.484,5.484,0,0,0-3.959,2,2.363,2.363,0,0,1-1.29.756c-.356,0-.756-.267-1.246-.8a4.947,4.947,0,0,0-3.826-1.913,5.64,5.64,0,0,0-3.959,2,2.363,2.363,0,0,1-1.29.756,1.868,1.868,0,0,1-1.2-.8,4.947,4.947,0,0,0-3.826-1.913,5.484,5.484,0,0,0-3.959,2,2.363,2.363,0,0,1-1.29.756,1.868,1.868,0,0,1-1.2-.8,4.947,4.947,0,0,0-3.826-1.913A5.575,5.575,0,0,0,2.222,55.21a.97.97,0,0,0,.089,1.335,1.017,1.017,0,0,0,1.335-.089,3.8,3.8,0,0,1,2.536-1.29,3.132,3.132,0,0,1,2.4,1.29A3.344,3.344,0,0,0,11.3,57.879a4.037,4.037,0,0,0,2.669-1.424,3.728,3.728,0,0,1,2.536-1.29,3.275,3.275,0,0,1,2.4,1.29,3.514,3.514,0,0,0,2.58,1.424h.133a4.037,4.037,0,0,0,2.669-1.424,3.8,3.8,0,0,1,2.536-1.29,3.275,3.275,0,0,1,2.4,1.29,3.344,3.344,0,0,0,2.714,1.424,4.037,4.037,0,0,0,2.669-1.424,3.7,3.7,0,0,1,2.491-1.29,3.132,3.132,0,0,1,2.4,1.29.946.946,0,0,0,1.424-1.246,5.12,5.12,0,0,0-3.915-2.091Z" transform="translate(-1.955 -17.884)" fill="#fff"/>
      <path id="Path_378" data-name="Path 378" d="M29.443,41.488a.932.932,0,0,0-1.023,1.557,3.247,3.247,0,0,0,1.824.534A3.432,3.432,0,0,0,32.112,43a.926.926,0,0,0-1.068-1.513,1.489,1.489,0,0,1-1.6,0Z" transform="translate(-10.624 -13.95)" fill="#fff"/>
      <path id="Path_379" data-name="Path 379" d="M44.4,44.976a3.179,3.179,0,0,0,.89.089h.133a3.489,3.489,0,0,0,1.468-.311,6.028,6.028,0,0,0,1.78-1.335l.356-.356a2.191,2.191,0,0,1,1.513-.756c.534,0,1.068.489,1.557.934a.944.944,0,0,0,1.335-1.335,4.226,4.226,0,0,0-2.758-1.468,3.944,3.944,0,0,0-2.8,1.246c-.133.133-.267.222-.4.356a6.177,6.177,0,0,1-1.29.979,2.078,2.078,0,0,1-.756.133,1.522,1.522,0,0,1-.489-.044,3.54,3.54,0,0,1-1.468-1.068l-.222-.089a.944.944,0,0,0-1.335,1.335l.133.133A5.766,5.766,0,0,0,44.4,44.976Z" transform="translate(-15.17 -13.656)" fill="#fff"/>
      <path id="Path_380" data-name="Path 380" d="M12.745,41.75c-.133.133-.267.222-.4.356a6.177,6.177,0,0,1-1.29.979,2.078,2.078,0,0,1-.756.133,1.522,1.522,0,0,1-.489-.044,3.54,3.54,0,0,1-1.468-1.068l-.133-.133A4.226,4.226,0,0,0,5.449,40.5a3.944,3.944,0,0,0-2.8,1.246.946.946,0,1,0,1.246,1.424A2.191,2.191,0,0,1,5.4,42.418c.534,0,1.068.489,1.557.934l.133.133a5.232,5.232,0,0,0,2.358,1.557,3.179,3.179,0,0,0,.89.089h.133a3.489,3.489,0,0,0,1.468-.311,6.028,6.028,0,0,0,1.78-1.335l.356-.356a.97.97,0,0,0,.089-1.335A1.085,1.085,0,0,0,12.745,41.75Z" transform="translate(-2.068 -13.678)" fill="#fff"/>
      <path id="Path_381" data-name="Path 381" d="M1.935,16.55a.912.912,0,0,0,.934.934H14.258a4.038,4.038,0,0,0,2.936,1.424h3.559c-.979,1.068-4.894,5.694-4.894,8.408a5.694,5.694,0,0,0,11.389,0c0-2.892-4.493-8.008-4.983-8.586l-.044-.044c2.447-.89,4.271-4.582,4.271-9.076C26.448,4.36,24.046.267,20.976.267H17.15a4.116,4.116,0,0,0-2.936,1.424H2.869a.912.912,0,0,0-.934.934.912.912,0,0,0,.934.934h10.1a13.671,13.671,0,0,0-1.29,6.05,13.957,13.957,0,0,0,1.29,6.05H2.869a.853.853,0,0,0-.934.89ZM25.38,27.316a3.826,3.826,0,0,1-7.652,0c0-1.468,2.135-4.493,3.826-6.54,1.691,2.046,3.826,5.072,3.826,6.54Zm-4.4-25.18c1.691,0,3.6,3.07,3.6,7.43,0,4.4-1.913,7.43-3.6,7.43s-3.6-3.07-3.6-7.43S19.286,2.135,20.976,2.135Zm-3.826,0h.534a12.187,12.187,0,0,0-2.135,7.43,12.489,12.489,0,0,0,2.135,7.43H17.15c-1.691,0-3.6-3.07-3.6-7.43S15.46,2.135,17.15,2.135Z" transform="translate(-1.935 -0.267)" fill="#fff"/>
    </g>
  </g>
</svg>
