<svg xmlns="http://www.w3.org/2000/svg" xmlns:xlink="http://www.w3.org/1999/xlink" width="38" height="38" viewBox="0 0 38 38">
  <defs>
    <clipPath id="clip-path">
      <rect id="Rectangle_152" data-name="Rectangle 152" width="38" height="38" transform="translate(375 1785)" fill="#fff" stroke="#707070" stroke-width="1"/>
    </clipPath>
  </defs>
  <g id="service-icon-4" transform="translate(-375 -1785)" clip-path="url(#clip-path)">
    <g id="data-analysis" transform="translate(375 1785.044)">
      <path id="Path_361" data-name="Path 361" d="M24.984,31.619l6.4,6.4a4.8,4.8,0,0,0,6.634,0,4.581,4.581,0,0,0,0-6.634l-6.4-6.4a16.338,16.338,0,0,0,1.9-7.582,4.442,4.442,0,0,0-.118-1.3l4.383-4.383a1.173,1.173,0,0,0-1.659-1.659l-3.2,3.2a15.491,15.491,0,0,0-4.147-7.108A16,16,0,0,0,6.147,28.776,15.936,15.936,0,0,0,24.984,31.619Zm11.255,1.422a2.346,2.346,0,0,1-3.317,3.317L26.88,30.316a20.593,20.593,0,0,0,1.777-1.54A20.594,20.594,0,0,0,30.2,27ZM7.806,7.806a13.615,13.615,0,0,1,23.1,7.464l-2.369,2.369-3.91-3.91a1.145,1.145,0,0,0-1.659,0L16.81,19.89l-2.725-2.725a1.145,1.145,0,0,0-1.659,0L7.687,21.9a1.173,1.173,0,0,0,1.659,1.659l3.91-3.91c1.777,1.422,3.08,4.028,4.383,2.725L23.8,16.217l3.91,3.91a1.145,1.145,0,0,0,1.659,0l1.659-1.659a13.909,13.909,0,0,1-3.91,8.648A13.655,13.655,0,1,1,7.806,7.806Z" transform="translate(-1.438 -1.438)" fill="#fff"/>
    </g>
  </g>
</svg>
